<svg width="36" height="36" viewBox="0 0 36 36" fill="none" xmlns="http://www.w3.org/2000/svg">
<path d="M2 27.0227C2 28.0776 2.42143 29.0892 3.17157 29.8351C3.92172 30.581 4.93913 31 6 31H30C31.0609 31 32.0783 30.581 32.8284 29.8351C33.5786 29.0892 34 28.0776 34 27.0227V16.0852H2V27.0227ZM6.71429 21.625C6.71429 21.0599 6.94005 20.518 7.34191 20.1184C7.74378 19.7188 8.28882 19.4943 8.85714 19.4943H12.2857C12.854 19.4943 13.3991 19.7188 13.8009 20.1184C14.2028 20.518 14.4286 21.0599 14.4286 21.625V23.0455C14.4286 23.6105 14.2028 24.1525 13.8009 24.5521C13.3991 24.9517 12.854 25.1761 12.2857 25.1761H8.85714C8.28882 25.1761 7.74378 24.9517 7.34191 24.5521C6.94005 24.1525 6.71429 23.6105 6.71429 23.0455V21.625ZM30 6H6C4.93913 6 3.92172 6.41903 3.17157 7.16492C2.42143 7.9108 2 8.92243 2 9.97727V11.8239H34V9.97727C34 8.92243 33.5786 7.9108 32.8284 7.16492C32.0783 6.41903 31.0609 6 30 6Z" fill="var(--color-accent-cargo)"/>
</svg>
