<svg width="36" height="36" viewBox="0 0 36 36" fill="none" xmlns="http://www.w3.org/2000/svg">
<path fill-rule="evenodd" clip-rule="evenodd" d="M14.25 1.5C13.9254 1.5 13.6096 1.60527 13.35 1.8C13.0904 1.99473 12.9009 2.26843 12.81 2.58L7.56 20.58C7.4948 20.8036 7.48254 21.0392 7.5242 21.2683C7.56585 21.4974 7.66028 21.7137 7.8 21.9C7.93972 22.0863 8.1209 22.2375 8.32918 22.3416C8.53746 22.4458 8.76713 22.5 9 22.5H14.8005L13.5105 32.814C13.468 33.1496 13.5402 33.4898 13.7154 33.7792C13.8906 34.0686 14.1585 34.2903 14.4756 34.4083C14.7926 34.5262 15.1403 34.5335 15.462 34.429C15.7838 34.3245 16.0608 34.1143 16.248 33.8325L28.248 15.8325C28.3987 15.6066 28.4853 15.344 28.4985 15.0728C28.5116 14.8015 28.4509 14.5318 28.3228 14.2924C28.1947 14.0529 28.004 13.8527 27.771 13.7132C27.538 13.5736 27.2716 13.5 27 13.5H21.6645L25.404 3.5265C25.4891 3.29961 25.5179 3.05549 25.488 2.81503C25.4581 2.57457 25.3704 2.34493 25.2324 2.14576C25.0944 1.94658 24.9102 1.7838 24.6956 1.67134C24.481 1.55888 24.2423 1.50009 24 1.5H14.25Z" fill="var(--color-accent-cargo)"/>
</svg>
