<svg width="36" height="36" viewBox="0 0 36 36" fill="none" xmlns="http://www.w3.org/2000/svg">
<path d="M19.7999 19.5976C23.4055 18.782 26.0999 15.5532 26.0999 11.7001C26.0999 7.22822 22.4718 3.6001 17.9999 3.6001C13.528 3.6001 9.8999 7.22822 9.8999 11.7001C9.8999 15.5532 12.5943 18.782 16.1999 19.5976V30.6001C16.1999 31.5957 17.0043 32.4001 17.9999 32.4001C18.9955 32.4001 19.7999 31.5957 19.7999 30.6001V19.5976ZM18.4499 9.0001C16.7118 9.0001 15.2999 10.412 15.2999 12.1501C15.2999 12.8982 14.698 13.5001 13.9499 13.5001C13.2018 13.5001 12.5999 12.8982 12.5999 12.1501C12.5999 8.92135 15.2212 6.3001 18.4499 6.3001C19.198 6.3001 19.7999 6.90197 19.7999 7.6501C19.7999 8.39822 19.198 9.0001 18.4499 9.0001Z" fill="var(--color-accent-cargo)"/>
</svg>
