<svg width="36" height="36" viewBox="0 0 36 36" fill="none" xmlns="http://www.w3.org/2000/svg">
<path d="M31.2003 12.7773C31.1542 12.7076 31.0933 12.6491 31.0218 12.6059C30.9504 12.5627 30.8702 12.536 30.7871 12.5276C30.7041 12.5193 30.6202 12.5295 30.5415 12.5576C30.4629 12.5857 30.3916 12.631 30.3326 12.6901L19.7267 23.2961C19.512 23.4868 19.2325 23.5883 18.9455 23.5797C18.6584 23.571 18.3856 23.4529 18.1828 23.2496C17.98 23.0463 17.8626 22.7731 17.8547 22.486C17.8469 22.1989 17.9491 21.9197 18.1404 21.7056L31.1763 8.67105C31.2809 8.56653 31.3638 8.44244 31.4204 8.30587C31.4769 8.16931 31.506 8.02293 31.506 7.87511C31.506 7.7273 31.4769 7.58092 31.4204 7.44436C31.3638 7.30779 31.2809 7.1837 31.1763 7.07918C31.0718 6.97465 30.9477 6.89174 30.8112 6.83517C30.6746 6.7786 30.5282 6.74949 30.3804 6.74949C30.2326 6.74949 30.0862 6.7786 29.9497 6.83517C29.8131 6.89174 29.689 6.97465 29.5845 7.07918L27.7029 8.96215C25.0177 6.86497 21.725 5.69466 18.3185 5.62667C14.9121 5.55868 11.5753 6.59667 8.80855 8.58503C6.04176 10.5734 3.99401 13.405 2.97227 16.6553C1.95052 19.9057 2.00985 23.3996 3.14134 26.6134C3.29637 27.054 3.58396 27.4359 3.96466 27.7066C4.34535 27.9772 4.80049 28.1234 5.26759 28.1251H30.7306C31.1972 28.1254 31.6524 27.9806 32.0331 27.7108C32.4137 27.4409 32.7011 27.0594 32.8554 26.619C33.6573 24.339 33.9251 21.9054 33.6381 19.5056C33.3512 17.1058 32.5171 14.8039 31.2003 12.7773ZM8.07728 23.4015C8.13657 23.6939 8.07728 23.9979 7.91245 24.2466C7.74763 24.4953 7.49077 24.6683 7.19838 24.7276C7.12432 24.7427 7.04894 24.7502 6.97338 24.7501C6.71407 24.7498 6.46285 24.6599 6.2622 24.4956C6.06156 24.3314 5.92382 24.1028 5.87228 23.8487C5.46999 21.8684 5.55845 19.8197 6.12993 17.8814C6.70142 15.9431 7.73857 14.1741 9.15088 12.7288C10.5632 11.2834 12.3078 10.2057 14.2323 9.5896C16.1569 8.97349 18.203 8.83774 20.1921 9.19418C20.4858 9.24676 20.7466 9.41387 20.9171 9.65874C21.0876 9.90361 21.1539 10.2062 21.1013 10.4999C21.0487 10.7936 20.8816 11.0544 20.6367 11.2249C20.3918 11.3954 20.0893 11.4616 19.7956 11.409C18.1678 11.1176 16.4935 11.2289 14.9187 11.7332C13.3439 12.2375 11.9164 13.1195 10.7607 14.3022C9.60506 15.4849 8.75633 16.9324 8.2886 18.5185C7.82086 20.1046 7.74831 21.781 8.07728 23.4015Z" fill="var(--color-accent-cargo)"/>
</svg>
