<svg width="36" height="36" viewBox="0 0 36 36" fill="none" xmlns="http://www.w3.org/2000/svg">
<path d="M22.5 6C23.2956 6 24.0587 6.31607 24.6213 6.87868C25.1839 7.44129 25.5 8.20435 25.5 9V10.5H27.78C28.2297 10.5001 28.6735 10.6012 29.0788 10.7959C29.4841 10.9906 29.8405 11.274 30.1215 11.625L32.3415 14.4015C32.7676 14.9335 32.9999 15.5948 33 16.2765V22.5C33 23.2956 32.6839 24.0587 32.1213 24.6213C31.5587 25.1839 30.7956 25.5 30 25.5H28.5C28.5 26.6935 28.0259 27.8381 27.182 28.682C26.3381 29.5259 25.1935 30 24 30C22.8065 30 21.6619 29.5259 20.818 28.682C19.9741 27.8381 19.5 26.6935 19.5 25.5H15C15 26.0909 14.8836 26.6761 14.6575 27.2221C14.4313 27.768 14.0998 28.2641 13.682 28.682C13.2641 29.0998 12.768 29.4313 12.2221 29.6575C11.6761 29.8836 11.0909 30 10.5 30C9.90905 30 9.32389 29.8836 8.77792 29.6575C8.23196 29.4313 7.73588 29.0998 7.31802 28.682C6.90016 28.2641 6.56869 27.768 6.34254 27.2221C6.1164 26.6761 6 26.0909 6 25.5C5.20435 25.5 4.44129 25.1839 3.87868 24.6213C3.31607 24.0587 3 23.2956 3 22.5V9C3 8.20435 3.31607 7.44129 3.87868 6.87868C4.44129 6.31607 5.20435 6 6 6H22.5ZM10.5 24C10.1022 24 9.72064 24.158 9.43934 24.4393C9.15804 24.7206 9 25.1022 9 25.5C9 25.8978 9.15804 26.2794 9.43934 26.5607C9.72064 26.842 10.1022 27 10.5 27C10.8978 27 11.2794 26.842 11.5607 26.5607C11.842 26.2794 12 25.8978 12 25.5C12 25.1022 11.842 24.7206 11.5607 24.4393C11.2794 24.158 10.8978 24 10.5 24ZM24 24C23.6022 24 23.2206 24.158 22.9393 24.4393C22.658 24.7206 22.5 25.1022 22.5 25.5C22.5 25.8978 22.658 26.2794 22.9393 26.5607C23.2206 26.842 23.6022 27 24 27C24.3978 27 24.7794 26.842 25.0607 26.5607C25.342 26.2794 25.5 25.8978 25.5 25.5C25.5 25.1022 25.342 24.7206 25.0607 24.4393C24.7794 24.158 24.3978 24 24 24ZM27.78 13.5H25.5V19.5H30V16.275L27.78 13.5Z" fill="var(--color-accent-cargo)"/>
</svg>
