<svg width="24" height="24" viewBox="0 0 24 24" fill="none" xmlns="http://www.w3.org/2000/svg">
<path d="M10.3275 22C9.87841 22 9.49189 21.85 9.16791 21.55C8.84392 21.25 8.64834 20.8833 8.58114 20.45L8.35662 18.8C8.14041 18.7167 7.93683 18.6167 7.7459 18.5C7.55497 18.3833 7.3677 18.2583 7.18409 18.125L5.63734 18.775C5.22155 18.9583 4.80576 18.975 4.38997 18.825C3.97418 18.675 3.64986 18.4083 3.41702 18.025L2.24449 15.975C2.01164 15.5917 1.94512 15.1833 2.04491 14.75C2.1447 14.3167 2.36922 13.9583 2.71849 13.675L4.0407 12.675C4.02407 12.5583 4.01576 12.4457 4.01576 12.337V11.662C4.01576 11.554 4.02407 11.4417 4.0407 11.325L2.71849 10.325C2.36922 10.0417 2.1447 9.68333 2.04491 9.25C1.94512 8.81667 2.01164 8.40833 2.24449 8.025L3.41702 5.975C3.64986 5.59167 3.97418 5.325 4.38997 5.175C4.80576 5.025 5.22155 5.04167 5.63734 5.225L7.18409 5.875C7.36703 5.74167 7.5583 5.61667 7.75788 5.5C7.95746 5.38333 8.15704 5.28333 8.35662 5.2L8.58114 3.55C8.64767 3.11667 8.84326 2.75 9.16791 2.45C9.49256 2.15 9.87908 2 10.3275 2H12.6725C13.1216 2 13.5084 2.15 13.8331 2.45C14.1577 2.75 14.353 3.11667 14.4189 3.55L14.6434 5.2C14.8596 5.28333 15.0635 5.38333 15.2551 5.5C15.4467 5.61667 15.6336 5.74167 15.8159 5.875L17.3627 5.225C17.7784 5.04167 18.1942 5.025 18.61 5.175C19.0258 5.325 19.3501 5.59167 19.583 5.975L20.7555 8.025C20.9884 8.40833 21.0549 8.81667 20.9551 9.25C20.8553 9.68333 20.6308 10.0417 20.2815 10.325L18.9593 11.325C18.9759 11.4417 18.9842 11.5543 18.9842 11.663V12.337C18.9842 12.4457 18.9676 12.5583 18.9343 12.675L20.2566 13.675C20.6058 13.9583 20.8304 14.3167 20.9301 14.75C21.0299 15.1833 20.9634 15.5917 20.7306 15.975L19.5331 18.025C19.3002 18.4083 18.9759 18.675 18.5601 18.825C18.1443 18.975 17.7286 18.9583 17.3128 18.775L15.8159 18.125C15.633 18.2583 15.4417 18.3833 15.2421 18.5C15.0425 18.6167 14.843 18.7167 14.6434 18.8L14.4189 20.45C14.3523 20.8833 14.1571 21.25 13.8331 21.55C13.5091 21.85 13.1223 22 12.6725 22H10.3275ZM11.5499 15.5C12.5145 15.5 13.3378 15.1583 14.0197 14.475C14.7016 13.7917 15.0425 12.9667 15.0425 12C15.0425 11.0333 14.7016 10.2083 14.0197 9.525C13.3378 8.84167 12.5145 8.5 11.5499 8.5C10.5686 8.5 9.74104 8.84167 9.06712 9.525C8.39321 10.2083 8.05658 11.0333 8.05725 12C8.05791 12.9667 8.39487 13.7917 9.06812 14.475C9.74137 15.1583 10.5686 15.5 11.5499 15.5Z" fill="var(--color-accent-passenger)"/>
</svg>
