<svg width="32" height="32" viewBox="0 0 32 32" fill="none" xmlns="http://www.w3.org/2000/svg">
<path d="M5.3335 26.5906V14.2478C5.3335 13.8135 5.42816 13.4021 5.6175 13.0135C5.80683 12.6249 6.06772 12.3049 6.40016 12.0535L14.4002 5.88207C14.8668 5.51635 15.4002 5.3335 16.0002 5.3335C16.6002 5.3335 17.1335 5.51635 17.6002 5.88207L25.6002 12.0535C25.9335 12.3049 26.1948 12.6249 26.3842 13.0135C26.5735 13.4021 26.6677 13.8135 26.6668 14.2478V26.5906C26.6668 27.3449 26.4055 27.9909 25.8828 28.5285C25.3602 29.0661 24.7326 29.3344 24.0002 29.3335H20.0002C19.6224 29.3335 19.3059 29.2018 19.0508 28.9385C18.7957 28.6752 18.6677 28.3497 18.6668 27.9621V21.1049C18.6668 20.7163 18.5388 20.3909 18.2828 20.1285C18.0268 19.8661 17.7104 19.7344 17.3335 19.7335H14.6668C14.289 19.7335 13.9726 19.8652 13.7175 20.1285C13.4624 20.3918 13.3344 20.7173 13.3335 21.1049V27.9621C13.3335 28.3506 13.2055 28.6766 12.9495 28.9399C12.6935 29.2032 12.377 29.3344 12.0002 29.3335H8.00016C7.26683 29.3335 6.63927 29.0651 6.1175 28.5285C5.59572 27.9918 5.33438 27.3458 5.3335 26.5906Z" fill="var(--color-accent-passenger)"/>
</svg>
