<svg width="395" height="83" viewBox="0 0 395 83" fill="none" xmlns="http://www.w3.org/2000/svg">
<path d="M341.687 63.5932V18.5268C341.687 17.6931 341.953 17.0138 342.483 16.4889C343.045 15.9331 343.731 15.6552 344.543 15.6552H354.325C355.168 15.6552 355.854 15.9331 356.385 16.4889C356.946 17.0138 357.227 17.6931 357.227 18.5268V48.957L373.703 18.99C374.202 18.0328 374.967 17.2454 375.997 16.6278C377.026 15.9794 378.025 15.6552 378.992 15.6552H392.098C392.94 15.6552 393.627 15.9331 394.157 16.4889C394.719 17.0138 395 17.6931 395 18.5268V63.5932C395 64.4269 394.719 65.1062 394.157 65.6312C393.627 66.1561 392.94 66.4185 392.098 66.4185H382.315C381.473 66.4185 380.786 66.1561 380.256 65.6312C379.725 65.0754 379.46 64.396 379.46 63.5932V33.2093L362.984 63.0837C362.485 63.9792 361.721 64.7666 360.691 65.4459C359.661 66.0943 358.663 66.4185 357.695 66.4185H344.543C343.7 66.4185 343.014 66.1561 342.483 65.6312C341.953 65.1062 341.687 64.4269 341.687 63.5932Z" fill="var(--color-text-black)"/>
<path d="M283.039 24.0385V18.5268C283.039 17.6931 283.304 17.0138 283.835 16.4889C284.396 15.9331 285.098 15.6552 285.941 15.6552H332.045C332.888 15.6552 333.574 15.9331 334.105 16.4889C334.635 17.0138 334.9 17.6931 334.9 18.5268V24.0385C334.9 24.8413 334.635 25.5207 334.105 26.0765C333.574 26.6014 332.888 26.8639 332.045 26.8639H317.114V63.5932C317.114 64.396 316.833 65.0754 316.271 65.6312C315.741 66.1561 315.054 66.4185 314.212 66.4185H303.774C302.932 66.4185 302.229 66.1561 301.668 65.6312C301.137 65.0754 300.872 64.396 300.872 63.5932V26.8639H285.941C285.098 26.8639 284.396 26.6014 283.835 26.0765C283.304 25.5207 283.039 24.8413 283.039 24.0385Z" fill="var(--color-text-black)"/>
<path d="M237.262 71.2355L243.394 72.0229C247.794 72.0229 250.867 68.827 252.615 62.4353C247.31 62.4353 242.879 60.8605 239.322 57.711C235.764 54.5305 232.706 48.8953 230.148 40.8053L223.173 18.4342C223.08 18.1871 223.033 17.9092 223.033 17.6005C223.033 17.2608 223.22 16.8594 223.595 16.3962C224 15.9331 224.593 15.686 225.373 15.6552H235.156C236.061 15.6552 236.919 15.9639 237.73 16.5815C238.573 17.1682 239.119 17.9092 239.368 18.8047L245.5 38.4431C247.029 43.2601 248.574 46.5949 250.134 48.4476C251.725 50.3002 253.598 51.2266 255.751 51.2266L265.065 18.8047C265.315 17.9092 265.798 17.1682 266.516 16.5815C267.265 15.9639 268.092 15.6552 268.997 15.6552H278.873C279.653 15.6552 280.23 15.9022 280.605 16.3962C280.979 16.8903 281.167 17.3071 281.167 17.6468C281.167 17.9556 281.135 18.218 281.073 18.4342L268.81 61.6942C266.625 69.352 263.911 74.8174 260.665 78.0904C257.451 81.3635 253.301 83 248.215 83C243.129 83 239.524 82.8147 237.403 82.4442C235.312 82.0737 234.001 81.6105 233.471 81.0547C232.94 80.5298 232.675 79.9122 232.675 79.202V74.1072C232.675 73.2735 232.94 72.5787 233.471 72.0229C234.001 71.498 234.688 71.2355 235.53 71.2355H237.262Z" fill="var(--color-text-black)"/>
<path d="M145.287 62.0647V4.40011C145.287 3.19587 145.709 2.16146 146.551 1.29688C147.394 0.432292 148.423 0 149.64 0H210.395C211.612 0 212.642 0.432292 213.484 1.29688C214.358 2.16146 214.795 3.19587 214.795 4.40011V62.0647C214.795 63.269 214.343 64.3034 213.438 65.168C212.564 66.0017 211.519 66.4185 210.302 66.4185H201.596C200.379 66.4185 199.333 66.0017 198.46 65.168C197.586 64.3034 197.149 63.269 197.149 62.0647V13.1077H162.933V62.0647C162.933 63.269 162.497 64.3034 161.623 65.168C160.78 66.0017 159.751 66.4185 158.534 66.4185H149.734C148.517 66.4185 147.472 66.0017 146.598 65.168C145.724 64.3034 145.287 63.269 145.287 62.0647Z" fill="var(--color-text-black)"/>
<path d="M86.4048 60.6752C81.5369 56.2288 79.103 49.6826 79.103 41.0368C79.103 32.3601 81.5369 25.814 86.4048 21.3984C91.2727 16.952 98.2624 14.7288 107.374 14.7288C116.517 14.7288 123.522 16.952 128.39 21.3984C133.258 25.814 135.692 32.3601 135.692 41.0368C135.692 49.6826 133.258 56.2288 128.39 60.6752C123.522 65.1216 116.517 67.3448 107.374 67.3448C98.2624 67.3448 91.2727 65.1216 86.4048 60.6752ZM98.2468 28.9944C96.3122 31.4955 95.3448 35.4942 95.3448 40.9905C95.3448 46.4868 96.3122 50.5009 98.2468 53.0329C100.181 55.5649 103.224 56.8309 107.374 56.8309C111.555 56.8309 114.613 55.5649 116.548 53.0329C118.514 50.5009 119.497 46.4868 119.497 40.9905C119.497 35.4942 118.514 31.4955 116.548 28.9944C114.613 26.4933 111.555 25.2427 107.374 25.2427C103.224 25.2427 100.181 26.4933 98.2468 28.9944Z" fill="var(--color-text-black)"/>
<path d="M0 62.0647V4.40011C0 3.19587 0.421258 2.16146 1.26378 1.29688C2.10629 0.432292 3.13604 0 4.353 0H65.1078C66.3248 0 67.3545 0.432292 68.1971 1.29688C69.0708 2.16146 69.5076 3.19587 69.5076 4.40011V62.0647C69.5076 63.269 69.0552 64.3034 68.1503 65.168C67.2765 66.0017 66.2312 66.4185 65.0142 66.4185H56.3082C55.0912 66.4185 54.0459 66.0017 53.1722 65.168C52.2985 64.3034 51.8616 63.269 51.8616 62.0647V13.1077H17.646V62.0647C17.646 63.269 17.2092 64.3034 16.3355 65.168C15.4929 66.0017 14.4632 66.4185 13.2462 66.4185H4.44662C3.22965 66.4185 2.1843 66.0017 1.31058 65.168C0.436861 64.3034 0 63.269 0 62.0647Z" fill="var(--color-text-black)"/>
<path d="M35.2453 14.0495V33.8114" stroke="var(--color-text-black)" stroke-width="5" stroke-linecap="round"/>
<path d="M181.032 14.0495V33.8114" stroke="var(--color-text-black)" stroke-width="5" stroke-linecap="round"/>
<path d="M35.2453 43.6923V63.4542" stroke="var(--color-text-black)" stroke-width="5" stroke-linecap="round"/>
<path d="M181.032 43.6923V63.4542" stroke="var(--color-text-black)" stroke-width="5" stroke-linecap="round"/>
</svg>
